<?xml version="1.0" standalone="no"?>
<!DOCTYPE svg PUBLIC "-//W3C//DTD SVG 20010904//EN"
 "http://www.w3.org/TR/2001/REC-SVG-20010904/DTD/svg10.dtd">
<svg version="1.0" xmlns="http://www.w3.org/2000/svg"
 width="586.000000pt" height="586.000000pt" viewBox="0 0 586.000000 586.000000"
 preserveAspectRatio="xMidYMid meet">
<metadata>
Created by potrace 1.14, written by Peter Selinger 2001-2017
</metadata>
<g transform="translate(0.000000,586.000000) scale(0.100000,-0.100000)"
fill="#000000" stroke="none">
<path d="M2738 5855 c-2 -2 -37 -6 -78 -9 -41 -4 -86 -8 -100 -10 -14 -2 -46
-7 -70 -10 -49 -7 -79 -12 -125 -23 -16 -3 -37 -7 -45 -8 -37 -6 -81 -16 -104
-25 -15 -5 -26 -8 -26 -5 0 2 -19 -3 -42 -11 -24 -9 -54 -18 -67 -20 -13 -3
-32 -9 -43 -15 -10 -5 -18 -7 -18 -3 0 3 -6 2 -12 -4 -7 -6 -17 -11 -23 -11
-10 -1 -84 -27 -120 -41 -65 -27 -97 -41 -160 -71 -38 -18 -73 -32 -77 -31 -5
1 -8 -3 -8 -9 0 -5 -4 -7 -10 -4 -5 3 -10 1 -10 -5 0 -6 -4 -9 -9 -5 -5 3 -13
1 -16 -5 -4 -6 -29 -20 -56 -32 -27 -12 -49 -25 -49 -30 0 -4 -4 -8 -9 -8 -13
0 -145 -81 -149 -91 -2 -5 -9 -9 -15 -9 -7 0 -25 -11 -41 -25 -16 -14 -32 -25
-35 -25 -3 0 -21 -14 -40 -30 -18 -17 -36 -30 -40 -30 -3 0 -22 -15 -42 -33
-20 -17 -56 -48 -80 -67 -45 -36 -253 -241 -300 -296 -186 -217 -353 -482
-471 -748 -86 -193 -176 -490 -203 -670 -3 -21 -8 -48 -10 -60 -34 -144 -40
-607 -11 -816 2 -14 7 -46 10 -70 8 -61 16 -101 22 -123 3 -10 7 -30 9 -45 4
-25 8 -44 20 -92 3 -11 7 -28 9 -38 6 -24 47 -164 53 -182 4 -8 7 -17 8 -20 1
-3 5 -13 8 -22 16 -41 20 -54 23 -63 1 -5 8 -23 15 -40 7 -16 13 -32 14 -35 1
-3 7 -18 14 -35 7 -16 12 -31 12 -32 0 -2 15 -34 35 -73 19 -38 34 -73 35 -77
0 -5 8 -16 16 -25 9 -10 13 -18 9 -18 -4 0 1 -12 12 -28 10 -15 22 -34 25 -42
4 -8 16 -28 27 -45 11 -16 23 -37 27 -45 10 -22 56 -93 70 -108 6 -6 15 -21
18 -32 3 -11 11 -20 16 -20 5 0 9 -5 9 -11 0 -6 12 -26 27 -44 16 -18 37 -44
47 -59 11 -15 27 -35 35 -45 9 -10 34 -40 56 -67 88 -107 317 -324 429 -407
28 -21 59 -45 69 -53 38 -31 195 -133 247 -160 30 -16 57 -32 60 -35 9 -10
204 -107 270 -134 242 -99 486 -168 715 -201 22 -3 51 -7 64 -9 84 -14 169
-19 351 -19 182 -1 250 2 394 19 61 7 162 23 186 30 8 2 31 7 50 10 19 3 43 8
52 11 9 3 27 7 40 10 29 6 32 7 88 24 52 16 45 14 90 24 19 5 40 11 45 15 6 3
12 6 15 6 3 0 19 5 35 12 32 12 54 19 70 23 6 1 19 7 30 13 11 6 22 12 25 12
3 1 19 7 35 14 17 7 32 13 35 13 3 1 28 13 55 27 28 14 53 24 58 23 4 -1 7 3
7 9 0 5 5 7 10 4 6 -3 10 -1 10 5 0 6 5 8 10 5 6 -3 10 -1 10 6 0 7 3 9 7 6 3
-4 11 -3 17 2 6 5 34 21 61 37 28 15 64 36 80 46 17 10 38 21 48 24 9 4 17 10
17 15 0 5 7 9 15 9 8 0 15 5 15 10 0 6 7 10 15 10 8 0 15 5 15 10 0 6 7 10 15
10 8 0 15 4 15 8 0 5 11 14 25 20 26 12 40 22 76 55 10 9 22 17 25 17 3 0 11
6 19 13 7 6 30 26 50 42 21 17 53 44 72 60 60 51 266 258 308 309 22 27 45 54
50 60 6 6 36 45 67 86 193 260 343 549 444 857 38 116 84 301 98 388 14 94 19
122 22 139 19 103 26 528 10 656 -4 36 -9 81 -11 100 -4 36 -16 117 -21 135
-1 6 -5 24 -8 40 -3 17 -8 41 -11 55 -3 14 -7 37 -10 52 -3 15 -9 37 -14 50
-5 13 -9 25 -9 28 -3 38 -91 307 -110 338 -8 12 -11 22 -8 22 4 0 0 12 -8 28
-25 46 -86 182 -83 186 1 2 -7 13 -17 25 -11 12 -15 21 -10 21 5 0 5 4 -1 8
-5 4 -18 23 -27 42 -18 38 -50 92 -58 100 -10 10 -31 45 -36 63 -4 9 -10 17
-15 17 -5 0 -9 7 -9 15 0 8 -4 15 -10 15 -5 0 -10 5 -10 10 0 14 -41 72 -57
83 -7 4 -13 15 -13 22 0 8 -4 15 -8 15 -4 0 -15 12 -25 28 -9 15 -29 41 -44
58 -15 18 -44 51 -63 75 -41 51 -249 260 -305 307 -92 77 -122 100 -199 154
-44 32 -85 61 -91 66 -30 23 -174 107 -265 156 -319 168 -679 277 -1060 322
-56 6 -486 14 -492 9z"/>
</g>
</svg>
